# AST/ASF file generated using VICON BodyLanguage
# -----------------------------------------------
:version 1.10
:name VICON
:units
  mass 1.0
  length 0.45
  angle deg
:documentation
   .ast/.asf automatically generated from VICON data using
   VICON BodyBuilder and BodyLanguage model FoxedUp or BRILLIANT.MOD
:root
   order TX TY TZ RX RY RZ
   axis XYZ
   position 0 0 0  
   orientation 0 0 0 
:bonedata
  begin
     id 1 
     name lhipjoint
     direction 0.541323 -0.757556 0.364798 
     length 2.47576 
     axis 0 0 0  XYZ
  end
  begin
     id 2 
     name lfemur
     direction 0.34202 -0.939693 0  
     length 7.46493  
     axis 0 0 20  XYZ
    dof rx ry rz
    limits (-160.0 20.0)
           (-70.0 70.0)
           (-60.0 70.0)
  end
  begin
     id 3 
     name ltibia
     direction 0.34202 -0.939693 0   
     length 7.73805   
     axis 0 0 20   XYZ
    dof rx
    limits (-10.0 170.0)
  end
  begin
     id 4 
     name lfoot
     direction 0.107174 -0.294458 0.949636   
     length 2.25864   
     axis -90 7.62852e-016 20   XYZ
    dof rx rz
    limits (-45.0 90.0)
           (-70.0 20.0)
  end
  begin
     id 5 
     name ltoes
     direction 1.53606e-011 -4.21934e-011 1   
     length 1.12451   
     axis -90 7.62852e-016 20   XYZ
    dof rx
    limits (-90.0 20.0)
  end
  begin
     id 6 
     name rhipjoint
     direction -0.524745 -0.766967 0.36933   
     length 2.44538  
     axis 0 0 0  XYZ 
  end
  begin
     id 7 
     name rfemur
     direction -0.34202 -0.939693 0   
     length 7.61604   
     axis 0 0 -20   XYZ
    dof rx ry rz
    limits (-160.0 20.0)
           (-70.0 70.0)
           (-70.0 60.0)
  end
  begin
     id 8 
     name rtibia
     direction -0.34202 -0.939693 0   
     length 7.61056   
     axis 0 0 -20   XYZ
    dof rx
    limits (-10.0 170.0)
 end
 begin
     id 9 
     name rfoot
     direction -0.12616 -0.346623 0.929482   
     length 2.46372  
     axis -90 -7.62852e-016 -20   XYZ
    dof rx rz
    limits (-45.0 90.0)
           (-20.0 70.0)
  end
  begin
     id 10 
     name rtoes
     direction -1.53531e-011 -4.22004e-011 1   
     length 1.21611   
     axis -90 -7.62852e-016 -20   XYZ
    dof rx
    limits (-90.0 20.0)
  end
  begin
     id 11 
     name lowerback
     direction -0.000778023 0.997293 -0.0735223   
     length 2.06139   
     axis 0 0 0   XYZ
    dof rx ry rz
    limits (-20.0 45.0)
           (-30.0 30.0)
           (-30.0 30.0)
  end
  begin
     id 12 
     name upperback
     direction 0.0222598 0.999722 -0.0078355   
     length 2.06383   
     axis 0 0 0   XYZ
    dof rx ry rz
    limits (-20.0 45.0)
           (-30.0 30.0)
           (-30.0 30.0)
  end
  begin
     id 13 
     name thorax
     direction 0.0219654 0.999405 0.0265994   
     length 2.07163   
     axis 0 0 0   XYZ
    dof rx ry rz
    limits (-20.0 45.0)
           (-30.0 30.0)
           (-30.0 30.0)
  end
  begin
     id 14 
     name lowerneck
     direction 0.0213282 0.988147 0.15202   
     length 1.75969   
     axis 0 0 0   XYZ
    dof rx ry rz
    limits (-20.0 45.0)
           (-30.0 30.0)
           (-30.0 30.0)
  end
  begin
     id 15 
     name upperneck
     direction -0.0546456 0.982624 -0.177379   
     length 1.79244   
     axis 0 0 0   XYZ
    dof rx ry rz
    limits (-20.0 45.0)
           (-30.0 30.0)
           (-30.0 30.0)
  end
  begin
     id 16
     name head
     direction -0.0199987 0.996855 -0.076686  
     length 1.80555  
     axis 0 0 0   XYZ
    dof rx ry rz
    limits (-20.0 45.0)
           (-30.0 30.0)
           (-30.0 30.0)
  end
  begin
     id 17 
     name lclavicle
     direction 0.929565 0.363219 -0.063096  
     length 3.55722  
     axis 0 0 0   XYZ
    dof ry rz
    limits (-20.0 10.0)
           (0.0 20.0)
  end
  begin
     id 18 
     name lhumerus
     direction 1 -4.48993e-011 -2.36203e-027   
     length 4.92785   
     axis 180 -30 -90   XYZ
    dof rx ry rz
    limits (-60.0 90.0)
           (-90.0 90.0)
           (-90.0 90.0)
  end
  begin
     id 19
     name lradius
     direction 1 -4.48947e-011 2.02997e-027   
     length 3.44052   
     axis 180 -30 -90   XYZ
    dof rx
    limits (-10.0 170.0)
  end
  begin
     id 20
     name lwrist
     direction 1 -4.48962e-011 1.45991e-027   
     length 1.72026   
     axis 1.49639e-024 90 90   XYZ
    dof ry
    limits (-180.0 0.0)
 end
  begin
     id 21 
     name lhand
     direction 1 -4.48984e-011 2.91906e-027   
     length 0.654326   
     axis -1.863e-015 90 90   XYZ
    dof rx rz
    limits (-90.0 90.0)
           (-45.0 45.0)
  end
  begin
     id 22 
     name lfingers
     direction 1 -4.48961e-011 5.83968e-027   
     length 0.527534   
     axis -3.72598e-015 90 90   XYZ
    dof rx
    limits (0.0 90.0)
  end
  begin
     id 23
     name lthumb
     direction 0.707107 -6.34963e-011 0.707107   
     length 0.757437   
     axis -90 45 -6.68868e-015   XYZ
    dof rx rz
    limits (-45.0 45.0)
           (-45.0 45.0)
  end
  begin
     id 24 
     name rclavicle
     direction -0.902944 0.422599 -0.0781198   
     length 3.54432  
     axis 0 0 0   XYZ 
    dof ry rz
    limits (-10.0 20.0)
           (-20.0 0.0)
  end
  begin
     id 25 
     name rhumerus
     direction -1 -4.48953e-011 -4.75835e-028  
     length 5.09181   
     axis 180 30 90   XYZ
    dof rx ry rz
    limits (-90.0 60.0)
           (-90.0 90.0)
           (-90.0 90.0)
  end
  begin
     id 26 
     name rradius
     direction -1 -4.48986e-011 -3.25889e-027   
     length 3.49865   
     axis 180 30 90   XYZ
    dof rx
    limits (-10.0 170.0)
  end
  begin
     id 27 
     name rwrist
     direction -1 -4.48963e-011 1.45989e-027   
     length 1.74933   
     axis 1.49639e-024 -90 -90   XYZ
    dof ry
    limits (-180.0 0.0)
  end
  begin
     id 28
     name rhand
     direction -1 -4.49003e-011 2.91844e-027   
     length 0.66641   
     axis -1.863e-015 -90 -90   XYZ
    dof rx rz
    limits (-90.0 90.0)
           (-45.0 45.0)
  end
  begin
     id 29
     name rfingers
     direction -1 -4.48973e-011 5.83886e-027   
     length 0.537277   
     axis -3.72598e-015 -90 -90   XYZ
    dof rx
    limits (0.0 90.0)
  end
  begin
     id 30
     name rthumb
     direction -0.707107 -6.34976e-011 0.707107   
     length 0.771425   
     axis -90 -45 6.68868e-015   XYZ
    dof rx rz
    limits (-45.0 45.0)
           (-45.0 45.0)
  end
:hierarchy
  begin
    root lhipjoint rhipjoint lowerback
    lhipjoint lfemur
    lfemur ltibia
    ltibia lfoot
    lfoot ltoes
    rhipjoint rfemur
    rfemur rtibia
    rtibia rfoot
    rfoot rtoes
    lowerback upperback
    upperback thorax
    thorax lowerneck lclavicle rclavicle
    lowerneck upperneck
    upperneck head
    lclavicle lhumerus
    lhumerus lradius
    lradius lwrist
    lwrist lhand lthumb
    lhand lfingers
    rclavicle rhumerus
    rhumerus rradius
    rradius rwrist
    rwrist rhand rthumb
    rhand rfingers
  end

#!OML:ASF H:\LiuWeirdWalks\Patient Classification 1\Patient 1\Session 1\male.ASF
:FULLY-SPECIFIED
:DEGREES
98
root -0.815656 17.6455 -26.5513 9.21177 8.81645 -2.8981
lowerback 8.13022 1.69203 4.04995
upperback -0.434998 2.78757 2.7161
thorax -4.96208 1.30839 0.21244
lowerneck -17.7685 -3.07499 1.78988
upperneck 15.2171 -3.35594 -6.90198
head 7.44792 -2.17296 -2.95216
rclavicle 7.95139e-016 4.37326e-014
rhumerus -32.0262 -31.3402 -65.2509
rradius 14.4363
rwrist 14.4554
rhand -16.8956 -6.96823
rfingers 7.12502
rthumb 9.33606 -36.7415
lclavicle 7.95139e-016 4.37326e-014
lhumerus -43.3691 1.55501 84.5843
lradius 43.3827
lwrist 17.299
lhand -14.4776 0.438903
lfingers 7.12502
lthumb 11.6685 30.094
rfemur 2.43659 -2.4395 28.6558
rtibia 21.0108
rfoot -13.2431 -27.7541
rtoes -12.9068
lfemur -43.3972 -0.283153 -13.5772
ltibia 52.7385
lfoot -10.736 12.4772
ltoes -18.2769
99
root -0.813811 17.6613 -26.4437 9.29108 9.11992 -2.89019
lowerback 8.26566 1.73419 4.11591
upperback -0.34871 2.85521 2.73468
thorax -4.94442 1.34122 0.183672
lowerneck -17.7919 -3.20754 1.71111
upperneck 15.022 -3.52207 -6.91572
head 7.38114 -2.2569 -2.95706
rclavicle 1.07344e-014 1.66979e-014
rhumerus -31.0856 -30.5155 -66.0857
rradius 14.7632
rwrist 13.1204
rhand -16.9065 -6.96339
rfingers 7.12502
rthumb 9.32556 -36.7371
lclavicle 1.07344e-014 1.66979e-014
lhumerus -43.3991 1.9893 84.256
lradius 42.8351
lwrist 17.0762
lhand -14.6966 0.425161
lfingers 7.12502
lthumb 11.4574 30.0921
rfemur 2.59688 -2.59581 28.7187
rtibia 21.1133
rfoot -12.5452 -27.6715
rtoes -13.4854
lfemur -43.7561 -0.395465 -13.8777
ltibia 50.8126
lfoot -10.5294 12.0939
ltoes -18.3963
100
root -0.811693 17.6767 -26.3345 9.36434 9.38921 -2.91159
lowerback 8.43008 1.78399 4.18813
upperback -0.291524 2.93744 2.75911
thorax -4.97311 1.38008 0.154137
lowerneck -17.7306 -3.33585 1.6283
upperneck 14.7982 -3.68793 -6.90106
head 7.29124 -2.33683 -2.94866
rclavicle 4.1546e-014 1.03368e-014
rhumerus -30.2094 -29.5164 -66.9311
rradius 15.1678
rwrist 11.5971
rhand -16.8436 -6.95067
rfingers 7.12502
rthumb 9.38621 -36.7217
lclavicle 4.1546e-014 1.03368e-014
lhumerus -43.4773 2.40997 83.912
lradius 42.2313
lwrist 16.8426
lhand -14.8919 0.327152
lfingers 7.12502
lthumb 11.269 30.0044
rfemur 2.6839 -2.72324 28.8081
rtibia 21.3529
rfoot -11.8299 -27.5766
rtoes -14.0085
lfemur -44.0746 -0.478638 -14.1429
ltibia 48.8402
lfoot -10.2723 11.6616
ltoes -18.588
101
root -0.809561 17.6912 -26.2244 9.43181 9.61834 -2.96267
lowerback 8.61846 1.84447 4.26145
upperback -0.233655 3.03625 2.79308
thorax -5.01447 1.42694 0.130749
lowerneck -17.6666 -3.45618 1.55852
upperneck 14.5661 -3.84705 -6.88439
head 7.19859 -2.4125 -2.94049
rclavicle -2.62396e-014 -2.38542e-015
rhumerus -29.3362 -28.367 -67.8011
rradius 15.6564
rwrist 9.90327
rhand -16.7096 -6.967
rfingers 7.12502
rthumb 9.51553 -36.7321
lclavicle -2.62396e-014 -2.38542e-015
lhumerus -43.5345 2.82907 83.5626
lradius 41.5671
lwrist 16.599
lhand -15.0875 0.244806
lfingers 7.12502
lthumb 11.0803 29.9323
rfemur 2.67678 -2.82 28.9236
rtibia 21.7665
rfoot -11.1009 -27.4695
rtoes -14.458
lfemur -44.358 -0.519342 -14.3755
ltibia 46.8381
lfoot -10.0279 11.199
ltoes -18.7511
102
root -0.807663 17.7037 -26.1134 9.49773 9.81925 -3.0253
lowerback 8.82357 1.9032 4.3173
upperback -0.171283 3.13267 2.83797
thorax -5.06192 1.47309 0.127825
lowerneck -17.6023 -3.53782 1.53039
upperneck 14.2745 -3.96127 -6.89876
head 7.0874 -2.46683 -2.9427
rclavicle 4.09496e-014 3.97569e-015
rhumerus -28.4605 -27.1749 -68.6373
rradius 16.1851
rwrist 8.19478
rhand -16.5112 -6.94247
rfingers 7.12502
rthumb 9.70695 -36.6988
lclavicle 4.09496e-014 3.97569e-015
lhumerus -43.5654 3.28859 83.1985
lradius 40.8311
lwrist 16.3346
lhand -15.2731 0.139974
lfingers 7.12502
lthumb 10.9013 29.837
rfemur 2.56314 -2.8924 29.0501
rtibia 22.3775
rfoot -10.3929 -27.3565
rtoes -14.7889
lfemur -44.6164 -0.542668 -14.5883
ltibia 44.8209
lfoot -9.80727 10.7383
ltoes -18.94
103
root -0.805896 17.714 -26.0015 9.54858 9.98082 -3.11284
lowerback 9.0534 1.97153 4.37076
upperback -0.104177 3.24346 2.88695
thorax -5.11821 1.52624 0.127413
lowerneck -17.6193 -3.63204 1.47202
upperneck 14.0947 -4.08738 -6.86942
head 7.02771 -2.52639 -2.93225
rclavicle -3.8763e-014 -7.15625e-015
rhumerus -27.6067 -25.9486 -69.4414
rradius 16.7712
rwrist 6.46659
rhand -16.2754 -6.9333
rfingers 7.12502
rthumb 9.93444 -36.6789
lclavicle -3.8763e-014 -7.15625e-015
lhumerus -43.5882 3.73462 82.825
lradius 40.0647
lwrist 16.0811
lhand -15.4232 0.0717413
lfingers 7.12502
lthumb 10.7566 29.7763
rfemur 2.35162 -2.9351 29.1976
rtibia 23.188
rfoot -9.66423 -27.2388
rtoes -15.0485
lfemur -44.8386 -0.534097 -14.7719
ltibia 42.8054
lfoot -9.62631 10.3098
ltoes -19.0776
104
root -0.804111 17.7214 -25.8881 9.59222 10.1062 -3.20041
lowerback 9.29225 2.03886 4.39281
upperback -0.0264517 3.35022 2.94326
thorax -5.17059 1.57843 0.151954
lowerneck -17.6561 -3.71359 1.42425
upperneck 13.9097 -4.19675 -6.8529
head 6.97017 -2.57877 -2.92636
rclavicle -6.36111e-015 -2.46493e-014
rhumerus -26.7486 -24.7364 -70.1904
rradius 17.3801
rwrist 4.8309
rhand -16.0262 -6.84686
rfingers 7.12502
rthumb 10.1749 -36.5808
lclavicle -6.36111e-015 -2.46493e-014
lhumerus -43.6024 4.2116 82.4374
lradius 39.2686
lwrist 15.8361
lhand -15.5318 0.0184724
lfingers 7.12502
lthumb 10.6518 29.7285
rfemur 2.0543 -2.96124 29.3362
rtibia 24.1784
rfoot -8.95332 -27.1006
rtoes -15.1995
lfemur -45.0303 -0.50685 -14.9483
ltibia 40.8037
lfoot -9.48665 9.93461
ltoes -19.1399
105
root -0.80231 17.7263 -25.7724 9.62464 10.1904 -3.27032
lowerback 9.53826 2.11167 4.36906
upperback 0.0584248 3.45909 2.99362
thorax -5.22165 1.63278 0.194819
lowerneck -17.7267 -3.79561 1.36053
upperneck 13.782 -4.30462 -6.80897
head 6.93811 -2.62964 -2.91137
rclavicle 1.49089e-014 -4.92986e-014
rhumerus -25.8942 -23.5861 -70.882
rradius 18.0014
rwrist 3.31671
rhand -15.7725 -6.73889
rfingers 7.12502
rthumb 10.4197 -36.4607
lclavicle 1.49089e-014 -4.92986e-014
lhumerus -43.6225 4.67495 82.0367
lradius 38.4506
lwrist 15.5875
lhand -15.5981 0.0239655
lfingers 7.12502
lthumb 10.5879 29.7373
rfemur 1.69991 -2.97682 29.4443
rtibia 25.3073
rfoot -8.19039 -26.9333
rtoes -15.339
lfemur -45.1802 -0.454293 -15.1387
ltibia 38.8311
lfoot -9.39278 9.63378
ltoes -19.1517
106
root -0.800394 17.7281 -25.654 9.64149 10.245 -3.32049
lowerback 9.79151 2.1797 4.30556
upperback 0.142427 3.55715 3.03683
thorax -5.27996 1.68254 0.252946
lowerneck -17.7475 -3.88038 1.28502
upperneck 13.6394 -4.41744 -6.74461
head 6.89346 -2.68086 -2.88648
rclavicle -1.98785e-015 -1.43125e-014
rhumerus -25.0669 -22.444 -71.5322
rradius 18.6573
rwrist 1.88311
rhand -15.5291 -6.60257
rfingers 7.12502
rthumb 10.6544 -36.3125
lclavicle -1.98785e-015 -1.43125e-014
lhumerus -43.6965 5.12356 81.6142
lradius 37.6491
lwrist 15.3423
lhand -15.6184 0.053665
lfingers 7.12502
lthumb 10.5683 29.768
rfemur 1.32581 -2.98854 29.5222
rtibia 26.5197
rfoot -7.41179 -26.7409
rtoes -15.465
lfemur -45.2878 -0.392437 -15.3405
ltibia 36.9009
lfoot -9.3293 9.41543
ltoes -19.007
107
root -0.798632 17.727 -25.5333 9.65289 10.2718 -3.33684
lowerback 10.0623 2.24187 4.18656
upperback 0.225803 3.64131 3.06948
thorax -5.35192 1.72639 0.33161
lowerneck -17.7472 -3.96372 1.17649
upperneck 13.499 -4.529 -6.62594
head 6.84834 -2.72793 -2.83796
rclavicle 5.06901e-014 1.19271e-014
rhumerus -24.2263 -21.3411 -72.1506
rradius 19.3208
rwrist 0.571621
rhand -15.3162 -6.44286
rfingers 7.12502
rthumb 10.8598 -36.1421
lclavicle 5.06901e-014 1.19271e-014
lhumerus -43.8087 5.5555 81.1751
lradius 36.8645
lwrist 15.1014
lhand -15.6005 0.157991
lfingers 7.12502
lthumb 10.5855 29.8714
rfemur 0.955533 -3.00152 29.5574
rtibia 27.7507
rfoot -6.58399 -26.5112
rtoes -15.6271
lfemur -45.3647 -0.325004 -15.5655
ltibia 35.0268
lfoot -9.33565 9.27208
ltoes -18.777
108
root -0.796872 17.7233 -25.4097 9.65513 10.2723 -3.32113
lowerback 10.3313 2.28998 4.01619
upperback 0.32163 3.69906 3.09824
thorax -5.41346 1.75881 0.438458
lowerneck -17.6643 -4.0224 1.0516
upperneck 13.2547 -4.61268 -6.47701
head 6.75833 -2.75787 -2.76889
rclavicle -3.33958e-014 -5.24792e-014
rhumerus -23.3697 -20.2073 -72.7546
rradius 20.0199
rwrist -0.683208
rhand -15.1535 -6.25596
rfingers 7.12502
rthumb 11.0167 -35.9469
lclavicle -3.33958e-014 -5.24792e-014
lhumerus -43.9652 5.99125 80.7248
lradius 36.118
lwrist 14.8716
lhand -15.5317 0.294974
lfingers 7.12502
lthumb 10.6519 30.005
rfemur 0.631929 -3.00858 29.5543
rtibia 28.9338
rfoot -5.7349 -26.2585
rtoes -15.8531
lfemur -45.4082 -0.262336 -15.8049
ltibia 33.2227
lfoot -9.4021 9.20786
ltoes -18.5679
109
root -0.795251 17.7166 -25.283 9.64687 10.252 -3.28652
lowerback 10.5943 2.33635 3.82172
upperback 0.423146 3.74893 3.10876
thorax -5.46618 1.78787 0.540981
lowerneck -17.5527 -4.06678 0.94438
upperneck 12.9907 -4.68565 -6.30708
head 6.65801 -2.77946 -2.69356
rclavicle -1.37161e-014 2.14687e-014
rhumerus -22.5298 -19.082 -73.3417
rradius 20.7637
rwrist -1.87959
rhand -15.0456 -6.08907
rfingers 7.12502
rthumb 11.1208 -35.7744
lclavicle -1.37161e-014 2.14687e-014
lhumerus -44.1566 6.3685 80.2629
lradius 35.399
lwrist 14.646
lhand -15.4211 0.503009
lfingers 7.12502
lthumb 10.7586 30.2075
rfemur 0.388587 -3.01495 29.5317
rtibia 30.0052
rfoot -4.8723 -25.9959
rtoes -16.1668
lfemur -45.4233 -0.212543 -16.0395
ltibia 31.5016
lfoot -9.55286 9.23297
ltoes -18.3169
110
root -0.793391 17.7068 -25.1524 9.63678 10.236 -3.2252
lowerback 10.8293 2.37254 3.60237
upperback 0.544351 3.77774 3.10622
thorax -5.4835 1.80772 0.648357
lowerneck -17.4486 -4.0864 0.861033
upperneck 12.6711 -4.73297 -6.13532
head 6.54187 -2.78716 -2.61791
rclavicle 3.18055e-015 -1.59028e-014
rhumerus -21.675 -17.9677 -73.9091
rradius 21.541
rwrist -3.00395
rhand -14.9963 -5.91465
rfingers 7.12502
rthumb 11.1683 -35.5974
lclavicle 3.18055e-015 -1.59028e-014
lhumerus -44.3447 6.72338 79.7939
lradius 34.6862
lwrist 14.3874
lhand -15.272 0.746276
lfingers 7.12502
lthumb 10.9024 30.4432
rfemur 0.262395 -3.05176 29.4826
rtibia 30.8986
rfoot -4.03202 -25.7306
rtoes -16.5533
lfemur -45.4301 -0.195907 -16.2795
ltibia 29.8866
lfoot -9.73788 9.34151
ltoes -18.1466
111
root -0.791015 17.6936 -25.0176 9.62699 10.231 -3.15629
lowerback 11.0441 2.40004 3.38583
upperback 0.663005 3.79248 3.08783
thorax -5.49109 1.82039 0.740544
lowerneck -17.4085 -4.09177 0.792628
upperneck 12.4289 -4.76235 -5.95195
head 6.46224 -2.78599 -2.54335
rclavicle -2.44505e-014 -1.59028e-014
rhumerus -20.8384 -16.8784 -74.4547
rradius 22.3468
rwrist -4.06419
rhand -15.0478 -5.77529
rfingers 7.12502
rthumb 11.1187 -35.4607
lclavicle -2.44505e-014 -1.59028e-014
lhumerus -44.5633 7.02149 79.3166
lradius 33.9945
lwrist 14.0981
lhand -15.0859 0.990891
lfingers 7.12502
lthumb 11.0819 30.6783
rfemur 0.278862 -3.12219 29.4275
rtibia 31.56
rfoot -3.22487 -25.4799
rtoes -17.0172
lfemur -45.4447 -0.204358 -16.5099
ltibia 28.4069
lfoot -9.95705 9.53636
ltoes -18.0449
